# xmcd
#
# Track frame offsets:
#	150
#	19903
#	41022
#	66635
#	88573
#	107123
#	128901
#	148433
#	172172
#	194116
#
# Disc length: 2983 seconds
#
# Revision: 2
# Processed by: cddbd v1.5.2PL0 Copyright (c) Steve Scherf et al.
# Submitted via: EZCDAudioConverter 8.0.2.1
#
DISCID=a30ba50a
DTITLE=Hồng Trúc - 6. Xin Trả Tôi Về
DYEAR=2001
DGENRE=country
TTITLE0=Xin Trả Tôi Về
TTITLE1=Gió lạnh đêm hè
TTITLE2=Trước giờ tạm biệt
TTITLE3=Thương về mùa đông biên giới
TTITLE4=Tình không hối tiếc
TTITLE5=Giọng ca dĩ vãng
TTITLE6=Làng tôi
TTITLE7=Trên dòng sông nhỏ
TTITLE8=Mất nhau rồi
TTITLE9=Hoa mười giờ
EXTD=
EXTT0=
EXTT1=
EXTT2=
EXTT3=
EXTT4=
EXTT5=
EXTT6=
EXTT7=
EXTT8=
EXTT9=
PLAYORDER=
